# xmcd CD database file
#
# Track frame offsets:
#	150
#	56767
#	105156
#	145345
#	240272
#	280118
#
# Disc length: 4234 seconds
#
# Revision: 0
# Processed by: cddbd v1.5.1PL0 Copyright (c) Steve Scherf et al.
# Submitted via: CDex 1.51
#
DISCID=48108806
DTITLE=William Parker Quartet  - Sound Unity
DYEAR=2005
DGENRE=Jazz
TTITLE0=Hawaii
TTITLE1=Wood Flute Song
TTITLE2=Poem for June Jordan
TTITLE3=Sound Unity
TTITLE4=Harlem
TTITLE5=Groove
EXTD=YEAR: 2005
EXTT0=
EXTT1=
EXTT2=
EXTT3=
EXTT4=
EXTT5=
PLAYORDER=
